<svg width="100" height="100" viewBox="0 0 100 100" fill="none" xmlns="http://www.w3.org/2000/svg">
  <!-- White Background Circle -->
  <circle cx="50" cy="50" r="48" fill="white" stroke="#f1f5f9" stroke-width="1"/>
  
  <!-- Blue Domes (MDA Blue) -->
  <path d="M50 85C50 55 68 40 80 25C80 18 76 15 80 12C84 15 80 18 80 25C90 40 100 55 100 85H50Z" fill="#1a365d" fill-opacity="0.1"/>
  <path d="M15 85C15 50 35 30 50 15C50 8 46 5 50 2C54 5 50 8 50 15C65 30 85 50 85 85H15Z" fill="#1a365d"/>
  
  <!-- Large Golden Dove (Foreground) -->
  <path d="M42 45C48 40 56 36 66 36C62 42 60 48 60 54C60 60 64 66 70 70C62 70 56 66 52 60L42 66L46 54L42 45Z" fill="#d4af37"/>
  <path d="M46 54C36 50 28 44 22 36" stroke="#d4af37" stroke-width="3" stroke-linecap="round"/>
  
  <!-- Cross Detail -->
  <rect x="49" y="0" width="2" height="6" rx="1" fill="#d4af37"/>
  <rect x="47" y="2" width="6" height="2" rx="1" fill="#d4af37"/>
</svg>